<svg version="1" xmlns="http://www.w3.org/2000/svg" width="192" height="192" viewBox="0 0 144.000000 144.000000"><path d="M45.3 29c-5.3 1.2-9.5 4.3-12.1 9-2.1 3.9-2.3 5.3-1.7 10.5 2.1 17.7-.6 24.5-11.9 29.6-2.3 1-4.8 1.9-5.6 1.9-2.2 0-8.8 5.7-10.6 9.1-3.4 6.7-1.1 16.7 5 21.4 9 6.8 21.8 3.9 26.7-6.1 1.8-3.9 2-5.4 1.3-9.7-2.8-18.3.7-25.5 15.4-31.1 10.2-3.9 14.7-9.9 14-18.6-.9-10.5-10.6-18.1-20.5-16zM96 28.8c-2.5.4-8.5 4.4-10.7 7.2-3 3.7-3.6 8.1-2.3 16.4 2.2 14.5-1.7 21.3-15.4 26.9-9.7 4-13.4 7.9-14.3 15.4-1.9 16.3 17.7 26 29.5 14.5 4.2-4.1 5.6-9.1 4.6-16.6-1.6-12.6-1.1-15.4 3.4-21.5 2.3-3.1 11-8.1 14.2-8.1 2.5 0 9.1-6.1 10.6-9.6 3.1-7.4.6-17-5.5-21.3-3.2-2.3-10-3.9-14.1-3.3zM118.5 80c-6.8 2.1-11.9 9.7-11.7 17.4.2 8.4 6.9 15.6 15.8 16.9 7 1 16.5-5.3 18.4-12.3 2-7.7-1.7-17.2-8.1-20.5-3.8-2-10.5-2.7-14.4-1.5z"/></svg>